<svg width="357" height="317" viewBox="-245 -250 357 317" xmlns="http://www.w3.org/2000/svg" xmlns:xlink="http://www.w3.org/1999/xlink" overflow="hidden"><g><text font-family="Georgia" font-size="17" x="-167" y="16">I also wrote a book! ...</text><text font-family="PT Mono" font-size="14" x="-167" y="-11">p</text><rect x="-178.5" y="-28.5" rx="4" ry="4" width="191" height="61" stroke="#666666" fill="none"/><text font-family="Georgia" font-size="17" x="-167" y="-68.5">Hello, I am Marijn...</text><text font-family="PT Mono" font-size="14" x="-167" y="-95.5">p</text><rect x="-178.5" y="-113.5" rx="4" ry="4" width="191" height="61" stroke="#666666" fill="none"/><text font-family="Georgia" font-size="17" x="-167" y="-153.5">My home page</text><text font-family="PT Mono" font-size="14" x="-167" y="-180.5">h1</text><rect x="-178.5" y="-198.5" rx="4" ry="4" width="191" height="61" stroke="#666666" fill="none"/><text font-family="PT Mono" font-size="14" x="-178.5" y="-209.5">body</text><rect x="-190.5" y="-227.5" rx="4" ry="4" width="215" height="272" stroke="#666666" fill="none"/><text fill="#66AAAA" font-family="PT Mono" font-size="14" x="-230.5" y="-180.5">0</text><text fill="#66AAAA" font-family="PT Mono" font-size="14" x="-230.5" y="-95.5">1</text><text fill="#66AAAA" font-family="PT Mono" font-size="14" x="-230.5" y="-11">2</text><rect x="-242.5" y="-204.5" rx="4" ry="4" width="32" height="209" stroke="#666666" fill="none"/><path d="M-210.5-184.5-178.5-184.5" stroke="#66AAAA" fill="none"/><path d="M0 0 3 8 0 7-3 8Z" stroke="none" fill="#66AAAA" transform="matrix(6.12323e-17 1 -1 6.12323e-17 -178.5 -184.5)"/><path d="M-210.5-99.5-178.5-99.5" stroke="#66AAAA" fill="none"/><path d="M0 0 3 8 0 7-3 8Z" stroke="none" fill="#66AAAA" transform="matrix(6.12323e-17 1 -1 6.12323e-17 -178.5 -99.5)"/><path d="M-210.5-15.5-178.5-15.5" stroke="#66AAAA" fill="none"/><path d="M0 0 3 8 0 7-3 8Z" stroke="none" fill="#66AAAA" transform="matrix(6.12323e-17 1 -1 6.12323e-17 -178.5 -15.5)"/><path d="M-175.5-227.5-175.5-232.5C-175.5-236.366-178.634-239.5-182.5-239.5L-219.5-239.5C-223.366-239.5-226.5-236.366-226.5-232.5L-226.5-204.5" stroke="#66AAAA" fill="none"/><path d="M0 0 3 8 0 7-3 8Z" stroke="none" fill="#66AAAA" transform="matrix(-1 1.22465e-16 -1.22465e-16 -1 -226.5 -204.5)"/><text fill="#66AAAA" font-family="PT Mono" font-size="14" x="-170.5" y="-235.5">childNodes</text><path d="M-42.5-227.5-42.5-232.5C-42.5-236.366-45.634-239.5-49.5-239.5L-55.5-239.5C-59.366-239.5-62.5-236.366-62.5-232.5L-62.5-198.5" stroke="#66AAAA" fill="none"/><path d="M0 0 3 8 0 7-3 8Z" stroke="none" fill="#66AAAA" transform="matrix(-1 1.22465e-16 -1.22465e-16 -1 -62.5 -198.5)"/><text fill="#66AAAA" font-family="PT Mono" font-size="14" x="-38" y="-235.5">firstChild</text><path d="M-42.5 44.5-42.5 49.5C-42.5 53.366-45.634 56.5-49.5 56.5L-55.5 56.5C-59.366 56.5-62.5 53.366-62.5 49.5L-62.5 32.5" stroke="#66AAAA" fill="none"/><path d="M0 0 3 8 0 7-3 8Z" stroke="none" fill="#66AAAA" transform="translate(-62.5 32.5)"/><text fill="#66AAAA" font-family="PT Mono" font-size="14" x="-38" y="61.5">lastChild</text><path d="M-158.5-113.5-158.5-137.5" stroke="#66AAAA" fill="none"/><path d="M0 0 3 8 0 7-3 8Z" stroke="none" fill="#66AAAA" transform="translate(-158.5 -137.5)"/><text fill="#66AAAA" font-family="PT Mono" font-size="14" x="-153.5" y="-121">previousSibling</text><path d="M-158.5-52.5-158.5-28.5" stroke="#66AAAA" fill="none"/><path d="M0 0 3 8 0 7-3 8Z" stroke="none" fill="#66AAAA" transform="matrix(-1 1.22465e-16 -1.22465e-16 -1 -158.5 -28.5)"/><text fill="#66AAAA" font-family="PT Mono" font-size="14" x="-153.5" y="-36">nextSibling</text><path d="M12.5-82.5 31.5-82.5C35.366-82.5 38.5-85.634 38.5-89.5L38.5-95.5C38.5-99.366 35.366-102.5 31.5-102.5L31.5-102.5 24.5-102.5" stroke="#66AAAA" fill="none"/><path d="M0 0 3 8 0 7-3 8Z" stroke="none" fill="#66AAAA" transform="matrix(-1.83697e-16 -1 1 -1.83697e-16 24.5 -102.5)"/><text fill="#66AAAA" font-family="PT Mono" font-size="14" x="29.5" y="-66">parentNode</text></g></svg>