<svg width="439" height="259" viewBox="-2 -2 439 259" xmlns="http://www.w3.org/2000/svg" xmlns:xlink="http://www.w3.org/1999/xlink" overflow="hidden"><defs><linearGradient x1="0" y1="0" x2="0" y2="1" id="boxgrad"><stop offset="0" stop-color="#F8F8F8"/><stop offset="1" stop-color="#E8E8F2"/></linearGradient><linearGradient x1="0" y1="0" x2="0" y2="1" id="leafgrad"><stop offset="0" stop-color="#F8F8F8"/><stop offset="1" stop-color="#CAF0F0"/></linearGradient></defs><g><rect x="0.5" y="0.5" rx="4" ry="4" width="66" height="30" stroke="#666666" fill="url(#boxgrad)"/><text stroke="none" fill="#000000" font-family="PT Mono" font-size="18" x="9.7" y="23">html</text><rect x="91.5" y="0.5" rx="4" ry="4" width="66" height="30" stroke="#666666" fill="url(#boxgrad)"/><text stroke="none" fill="#000000" font-family="PT Mono" font-size="18" x="100.7" y="23">head</text><path d="M66.5 15.5 91.5 15.5" stroke="#000000" fill="none"/><path d="M0 0 3 8 0 7-3 8Z" stroke="none" fill="#000000" transform="matrix(6.12323e-17 1 -1 6.12323e-17 91.5 15.5)"/><rect x="182.5" y="0.5" rx="4" ry="4" width="78" height="30" stroke="#666666" fill="url(#boxgrad)"/><text stroke="none" fill="#000000" font-family="PT Mono" font-size="18" x="191.7" y="23">title</text><path d="M157.5 15.5 182.5 15.5" stroke="#000000" fill="none"/><path d="M0 0 3 8 0 7-3 8Z" stroke="none" fill="#000000" transform="matrix(6.12323e-17 1 -1 6.12323e-17 182.5 15.5)"/><rect x="285.5" y="0.5" rx="4" ry="4" width="149" height="29" stroke="#666666" fill="url(#leafgrad)"/><text stroke="none" fill="#000000" font-family="Georgia" font-size="18" x="294.3" y="22.25">My home page</text><path d="M260.5 15.5 285.5 15.5" stroke="#000000" fill="none"/><path d="M0 0 3 8 0 7-3 8Z" stroke="none" fill="#000000" transform="matrix(6.12323e-17 1 -1 6.12323e-17 285.5 15.5)"/><rect x="91.5" y="45.5" rx="4" ry="4" width="66" height="30" stroke="#666666" fill="url(#boxgrad)"/><text stroke="none" fill="#000000" font-family="PT Mono" font-size="18" x="100.7" y="68">body</text><path d="M74.5 15.5 74.5 56.5C74.5 58.7091 76.2909 60.5 78.5 60.5L91.5 60.5" stroke="#000000" fill="none"/><path d="M0 0 3 8 0 7-3 8Z" stroke="none" fill="#000000" transform="matrix(6.12323e-17 1 -1 6.12323e-17 91.5 60.5)"/><rect x="182.5" y="45.5" rx="4" ry="4" width="78" height="30" stroke="#666666" fill="url(#boxgrad)"/><text stroke="none" fill="#000000" font-family="PT Mono" font-size="18" x="191.7" y="68">h1</text><path d="M157.5 60.5 182.5 60.5" stroke="#000000" fill="none"/><path d="M0 0 3 8 0 7-3 8Z" stroke="none" fill="#000000" transform="matrix(6.12323e-17 1 -1 6.12323e-17 182.5 60.5)"/><rect x="285.5" y="45.5" rx="4" ry="4" width="149" height="29" stroke="#666666" fill="url(#leafgrad)"/><text stroke="none" fill="#000000" font-family="Georgia" font-size="18" x="294.3" y="67.25">My home page</text><path d="M260.5 60.5 285.5 60.5" stroke="#000000" fill="none"/><path d="M0 0 3 8 0 7-3 8Z" stroke="none" fill="#000000" transform="matrix(6.12323e-17 1 -1 6.12323e-17 285.5 60.5)"/><rect x="182.5" y="90.5" rx="4" ry="4" width="78" height="30" stroke="#666666" fill="url(#boxgrad)"/><text stroke="none" fill="#000000" font-family="PT Mono" font-size="18" x="191.7" y="113">p</text><path d="M165.5 60.5 165.5 101.5C165.5 103.709 167.291 105.5 169.5 105.5L182.5 105.5" stroke="#000000" fill="none"/><path d="M0 0 3 8 0 7-3 8Z" stroke="none" fill="#000000" transform="matrix(6.12323e-17 1 -1 6.12323e-17 182.5 105.5)"/><rect x="285.5" y="90.5" rx="4" ry="4" width="149" height="29" stroke="#666666" fill="url(#leafgrad)"/><text stroke="none" fill="#000000" font-family="Georgia" font-size="18" x="294.3" y="112.25">Hello! I am...</text><path d="M260.5 105.5 285.5 105.5" stroke="#000000" fill="none"/><path d="M0 0 3 8 0 7-3 8Z" stroke="none" fill="#000000" transform="matrix(6.12323e-17 1 -1 6.12323e-17 285.5 105.5)"/><rect x="182.5" y="135.5" rx="4" ry="4" width="78" height="30" stroke="#666666" fill="url(#boxgrad)"/><text stroke="none" fill="#000000" font-family="PT Mono" font-size="18" x="191.7" y="158">p</text><path d="M165.5 60.5 165.5 146.5C165.5 148.709 167.291 150.5 169.5 150.5L182.5 150.5" stroke="#000000" fill="none"/><path d="M0 0 3 8 0 7-3 8Z" stroke="none" fill="#000000" transform="matrix(6.12323e-17 1 -1 6.12323e-17 182.5 150.5)"/><rect x="285.5" y="135.5" rx="4" ry="4" width="149" height="29" stroke="#666666" fill="url(#leafgrad)"/><text stroke="none" fill="#000000" font-family="Georgia" font-size="18" x="294.3" y="157.25">I also wrote...</text><path d="M260.5 150.5 285.5 150.5" stroke="#000000" fill="none"/><path d="M0 0 3 8 0 7-3 8Z" stroke="none" fill="#000000" transform="matrix(6.12323e-17 1 -1 6.12323e-17 285.5 150.5)"/><rect x="376.5" y="180.5" rx="4" ry="4" width="58" height="29" stroke="#666666" fill="url(#leafgrad)"/><text stroke="none" fill="#000000" font-family="Georgia" font-size="18" x="385.3" y="202.25">here</text><rect x="285.5" y="180.5" rx="4" ry="4" width="66" height="30" stroke="#666666" fill="url(#boxgrad)"/><text stroke="none" fill="#000000" font-family="PT Mono" font-size="18" x="294.7" y="203">a</text><path d="M268.5 150.5 268.5 191.5C268.5 193.709 270.291 195.5 272.5 195.5L285.5 195.5" stroke="#000000" fill="none"/><path d="M0 0 3 8 0 7-3 8Z" stroke="none" fill="#000000" transform="matrix(6.12323e-17 1 -1 6.12323e-17 285.5 195.5)"/><path d="M351.5 195.5 376.5 195.5" stroke="#000000" fill="none"/><path d="M0 0 3 8 0 7-3 8Z" stroke="none" fill="#000000" transform="matrix(6.12323e-17 1 -1 6.12323e-17 376.5 195.5)"/><rect x="285.5" y="225.5" rx="4" ry="4" width="23" height="29" stroke="#666666" fill="url(#leafgrad)"/><text stroke="none" fill="#000000" font-family="Georgia" font-size="18" x="294.3" y="247.25">.</text><path d="M268.5 150.5 268.5 236.5C268.5 238.709 270.291 240.5 272.5 240.5L285.5 240.5" stroke="#000000" fill="none"/><path d="M0 0 3 8 0 7-3 8Z" stroke="none" fill="#000000" transform="matrix(6.12323e-17 1 -1 6.12323e-17 285.5 240.5)"/></g></svg>