<svg viewBox="0 0 635 245" xmlns="http://www.w3.org/2000/svg" xmlns:xlink="http://www.w3.org/1999/xlink" id="svg3336" overflow="hidden"><defs id="defs3501"></defs><pattern width="144.13" height="138.362" patternUnits="userSpaceOnUse" viewBox="99.963 -216.829 144.13 138.362" id="Alysse" overflow="visible"><g id="g3341"><path d="M99.963-216.829 244.093-216.829 244.093-78.467 99.963-78.467Z" id="polygon3343" fill="none"/><g id="g3345"><path d="M311.036-58.307C299.276-59.691 291.667-57.961 288.382-55.194 285.362-52.651 283.427-49.789 286.134-43.262 289.073-36.171 287.667-28.53 280.599-27.352 274.374-26.315 269.704-32.194 269.359-39.63 269.119-44.813 267.457-47.931 263.826-47.238 260.193-46.547 259.197-41.338 260.193-35.479 261.578-27.351 265.728-23.719 266.42-15.246 266.914-9.191 263.481-1.584 253.969-0.201 244.668 1.153 238.059-4.523 237.367-10.75 236.635-17.338 240.998-21.644 240.478-28.389 239.96-35.134 236.466-38.561 234.599-45.683 231.831-56.232 235.81-64.705 242.38-68.337 257.126-76.485 265.212-64.695 278.351-66.781 289.248-68.51 301.699-84.938 311.382-86.322 319.609-87.497 325.216-81.653 326.427-72.314 327.638-62.976 321.687-57.053 311.036-58.307ZM268.841-57.788C268.841-60.08 266.982-61.938 264.691-61.938 262.398-61.938 260.541-60.08 260.541-57.788 260.541-55.496 262.399-53.638 264.691-53.638 266.982-53.638 268.841-55.496 268.841-57.788ZM318.3-73.179C318.3-74.134 317.525-74.909 316.57-74.909 315.615-74.909 314.842-74.135 314.842-73.179 314.842-72.224 315.615-71.45 316.57-71.45 317.525-71.45 318.3-72.224 318.3-73.179Z" id="path3347" fill="#C6DD7F"/></g><g id="g3349"><path d="M148.796-77.494C148.796-70.328 153.384-63.681 147.796-61.161 139.296-57.328 119.796-75.494 119.796-97.328 119.796-109.328 128.464-116.328 137.63-116.328 149.964-116.328 155.63-108.161 155.63-98.828 155.63-89.496 148.796-85.689 148.796-77.494ZM143.387-82.864C143.387-84.01 142.457-84.939 141.313-84.939 140.167-84.939 139.237-84.01 139.237-82.864 139.237-81.718 140.167-80.789 141.313-80.789 142.458-80.788 143.387-81.718 143.387-82.864Z" id="path3351" fill="#E9DDB7"/><path d="M223.494-54C215.623-51.263 204.055-69.297 205.824-81.019 207.064-89.247 212.947-94.208 218.912-95.236 226.437-96.533 231.81-92.635 232.211-87.993 232.758-81.684 228.578-80.475 227.988-73.035 227.426-65.9 231.68-56.849 223.494-54ZM219.705-81.508C219.705-82.942 218.543-84.103 217.111-84.103 215.677-84.103 214.517-82.942 214.517-81.508 214.517-80.075 215.677-78.914 217.111-78.914 218.543-78.914 219.705-80.076 219.705-81.508Z" id="path3353" fill="#A6D0E4"/><path d="M119.35-76.465C119.35-75.032 118.188-73.871 116.756-73.871 115.322-73.871 114.162-75.032 114.162-76.465 114.162-77.898 115.322-79.059 116.756-79.059 118.188-79.059 119.35-77.898 119.35-76.465Z" id="path3355" fill="#E9DDB7"/><path d="M184.573-84.189C185.313-76.088 197.244-77.172 202.477-69.975 212.997-55.5 201.258-23.61 180.847-23.61 169.107-23.61 156.63-33.329 156.63-52.829 156.63-68.663 166.796-74.329 164.88-94.995 163.874-105.829 152.38-115.338 152.38-129.745 152.38-135.667 155.966-143.192 163.933-143.192 170.988-143.192 174.755-137.239 174.755-130.292 174.755-123.494 169.374-114.552 176.13-111.245 181.372-108.68 189.341-116.015 195.629-117.995 200.82-119.631 208.018-117.77 210.379-109.495 212.91-100.619 207.127-94.75 198.787-92.802 192.469-91.325 183.985-90.63 184.573-84.189ZM168.589-114.747C168.589-116.562 167.118-118.034 165.304-118.034 163.49-118.034 162.017-116.562 162.017-114.747 162.017-112.933 163.49-111.462 165.304-111.462 167.118-111.462 168.589-112.933 168.589-114.747ZM194.572-105.052C195.857-105.052 196.9-106.095 196.9-107.382 196.9-108.668 195.857-109.71 194.572-109.71 193.285-109.71 192.242-108.668 192.242-107.382 192.243-106.095 193.286-105.052 194.572-105.052ZM174.589-45.38C174.589-47.195 173.118-48.667 171.302-48.667 169.488-48.667 168.017-47.195 168.017-45.38 168.017-43.565 169.488-42.095 171.302-42.095 173.118-42.095 174.589-43.566 174.589-45.38Z" id="path3357" fill="#A6D0E4"/><path d="M166.907-58.307C155.147-59.691 147.538-57.961 144.253-55.194 141.233-52.651 139.298-49.789 142.005-43.262 144.944-36.171 143.538-28.53 136.47-27.352 130.245-26.315 125.575-32.194 125.23-39.63 124.99-44.813 123.328-47.931 119.697-47.238 116.064-46.547 115.068-41.338 116.064-35.479 117.449-27.351 121.599-23.719 122.291-15.246 122.785-9.191 119.352-1.584 109.84-0.201 100.539 1.153 93.93-4.523 93.238-10.75 92.506-17.338 96.869-21.644 96.349-28.389 95.832-35.134 92.337-38.561 90.47-45.683 87.702-56.232 91.681-64.705 98.251-68.337 112.997-76.485 121.083-64.695 134.222-66.781 145.118-68.51 157.57-84.938 167.253-86.322 175.48-87.497 181.087-81.653 182.298-72.314 183.508-62.976 177.557-57.053 166.907-58.307ZM124.711-57.788C124.711-60.08 122.852-61.938 120.561-61.938 118.268-61.938 116.411-60.08 116.411-57.788 116.411-55.496 118.268-53.638 120.561-53.638 122.852-53.638 124.711-55.496 124.711-57.788ZM174.171-73.179C174.171-74.134 173.396-74.909 172.441-74.909 171.486-74.909 170.712-74.135 170.712-73.179 170.712-72.224 171.485-71.45 172.441-71.45 173.395-71.45 174.171-72.224 174.171-73.179Z" id="path3359" fill="#C6DD7F"/></g><g id="g3361"><path d="M290.284-104.841C290.284-98.614 286.134-94.12 281.638-93.255 277.142-92.39 273.32-94.536 268.667-92.044 263.825-89.45 261.577-80.976 251.892-80.976 243.937-80.976 236.675-88.931 236.675-99.826 236.675-120.06 249.818-129.052 262.269-129.052 278.87-129.052 290.284-116.427 290.284-104.841ZM270.57-119.195C270.57-121.295 268.867-122.998 266.765-122.998 264.663-122.998 262.96-121.295 262.96-119.195 262.96-117.093 264.663-115.39 266.765-115.39 268.866-115.39 270.57-117.093 270.57-119.195Z" id="path3363" fill="#A6D0E4"/><path d="M311.036-196.669C299.276-198.053 291.667-196.323 288.382-193.556 285.362-191.013 283.427-188.151 286.134-181.624 289.073-174.533 287.667-166.892 280.599-165.714 274.374-164.677 269.704-170.556 269.359-177.992 269.119-183.175 267.457-186.293 263.826-185.6 260.193-184.909 259.197-179.7 260.193-173.841 261.578-165.713 265.728-162.081 266.42-153.608 266.914-147.553 263.481-139.946 253.969-138.563 244.668-137.209 238.059-142.885 237.367-149.112 236.635-155.7 240.998-160.007 240.478-166.751 239.96-173.496 236.466-176.923 234.599-184.045 231.831-194.594 235.81-203.068 242.38-206.699 257.126-214.847 265.212-203.057 278.351-205.143 289.248-206.872 301.699-223.3 311.382-224.684 319.609-225.859 325.216-220.015 326.427-210.676 327.638-201.338 321.687-195.415 311.036-196.669ZM268.841-196.151C268.841-198.443 266.982-200.301 264.691-200.301 262.398-200.301 260.541-198.443 260.541-196.151 260.541-193.859 262.399-192.001 264.691-192.001 266.982-192 268.841-193.859 268.841-196.151ZM318.3-211.541C318.3-212.496 317.525-213.271 316.57-213.271 315.615-213.271 314.842-212.497 314.842-211.541 314.842-210.586 315.615-209.812 316.57-209.812 317.525-209.812 318.3-210.586 318.3-211.541Z" id="path3365" fill="#C6DD7F"/></g><g id="g3367"><path d="M131.796-133.191C117.839-131.203 110.63-146.523 114.13-153.523 117.796-160.857 126.249-157.691 133.63-157.691 143.296-157.691 149.997-165.259 154.046-159.941 158.296-154.357 149.036-135.646 131.796-133.191ZM132.319-150.669C132.319-151.909 131.313-152.917 130.071-152.917 128.831-152.917 127.823-151.909 127.823-150.669 127.823-149.427 128.831-148.421 130.071-148.421 131.313-148.421 132.319-149.427 132.319-150.669Z" id="path3369" fill="#A6D0E4"/><path d="M148.796-215.857C148.796-208.691 153.384-202.044 147.796-199.524 139.296-195.691 119.796-213.857 119.796-235.691 119.796-247.691 128.464-254.691 137.63-254.691 149.964-254.691 155.63-246.524 155.63-237.191 155.63-227.859 148.796-224.051 148.796-215.857ZM143.387-221.226C143.387-222.372 142.457-223.301 141.313-223.301 140.167-223.301 139.237-222.372 139.237-221.226 139.237-220.08 140.167-219.151 141.313-219.151 142.458-219.151 143.387-220.081 143.387-221.226Z" id="path3371" fill="#E9DDB7"/><path d="M146.155-104.841C146.155-98.614 142.005-94.12 137.509-93.255 133.013-92.39 129.191-94.536 124.538-92.044 119.696-89.45 117.448-80.976 107.763-80.976 99.808-80.976 92.546-88.931 92.546-99.826 92.546-120.06 105.689-129.052 118.14-129.052 134.741-129.052 146.155-116.427 146.155-104.841ZM126.44-119.195C126.44-121.295 124.737-122.998 122.635-122.998 120.533-122.998 118.83-121.295 118.83-119.195 118.83-117.093 120.533-115.39 122.635-115.39 124.737-115.39 126.44-117.093 126.44-119.195Z" id="path3373" fill="#A6D0E4"/><path d="M145.464-128.533C145.464-127.197 144.38-126.113 143.042-126.113 141.706-126.113 140.622-127.197 140.622-128.533 140.622-129.871 141.706-130.955 143.042-130.955 144.38-130.955 145.464-129.871 145.464-128.533Z" id="path3375" fill="#C6DD7F"/><path d="M229.162-147.037C225.971-142.357 230.201-136.316 227.779-131.82 225.357-127.322 221.035-126.804 217.922-129.224 214.287-132.052 214.512-135.867 209.621-138.044 204.092-140.509 191.637-135.796 189.907-145.308 189.032-150.119 192.282-153.874 197.17-154.992 203.223-156.375 206.522-155.172 212.561-158.105 218.614-161.044 223.803-167.098 234.698-170.21 245.104-173.185 250.77-168.653 251.3-164.331 252.336-155.857 234.172-154.382 229.162-147.037ZM226.914-154.474C226.914-155.714 225.908-156.722 224.666-156.722 223.426-156.722 222.418-155.714 222.418-154.474 222.418-153.232 223.426-152.226 224.666-152.226 225.908-152.226 226.914-153.232 226.914-154.474Z" id="path3377" fill="#A6D0E4"/><path d="M256.129-107.857C256.129-90.691 241.629-82.357 229.129-85.025 218.865-87.215 216.295-102.357 212.461-111.191 208.748-119.748 203.629-133.691 192.296-133.691 181.099-133.691 179.464-119.191 168.63-119.191 157.63-119.191 144.13-134.857 144.13-158.857 144.13-173.524 153.929-190.312 164.964-189.524 176.63-188.691 169.464-169.857 180.296-169.857 189.796-169.857 188.153-186.116 189.464-193.191 191.13-202.191 196.295-207.357 207.961-206.357 222.404-205.12 230.295-192.857 226.832-183.013 222.803-171.562 202.963-165.691 205.295-152.523 206.641-144.931 218.295-140.525 231.295-136.357 245.824-131.701 256.129-125.025 256.129-107.857ZM211.178-183.7C211.178-181.885 212.649-180.414 214.463-180.414 216.277-180.414 217.75-181.885 217.75-183.7 217.75-185.515 216.277-186.986 214.463-186.986 212.648-186.986 211.178-185.515 211.178-183.7ZM164.485-158.796C164.485-159.751 163.712-160.526 162.756-160.526 161.801-160.526 161.026-159.751 161.026-158.796 161.026-157.841 161.801-157.067 162.756-157.067 163.712-157.068 164.485-157.841 164.485-158.796ZM181.952-148.076C181.952-150.178 180.249-151.881 178.147-151.881 176.047-151.881 174.342-150.178 174.342-148.076 174.342-145.974 176.047-144.271 178.147-144.271 180.249-144.271 181.952-145.974 181.952-148.076ZM201.84-163.639C201.84-164.498 201.143-165.195 200.283-165.195 199.423-165.195 198.726-164.499 198.726-163.639 198.726-162.78 199.423-162.083 200.283-162.083 201.143-162.083 201.84-162.78 201.84-163.639ZM231.482-108.945C231.482-110.697 230.062-112.119 228.308-112.119 226.556-112.119 225.134-110.697 225.134-108.945 225.134-107.191 226.556-105.771 228.308-105.771 230.063-105.771 231.482-107.191 231.482-108.945Z" id="path3379" fill="#E9DDB7"/><path d="M223.494-192.363C215.623-189.626 204.055-207.66 205.824-219.381 207.064-227.609 212.947-232.57 218.912-233.598 226.437-234.895 231.81-230.998 232.211-226.355 232.758-220.046 228.578-218.837 227.988-211.397 227.426-204.262 231.68-195.211 223.494-192.363ZM219.705-219.871C219.705-221.305 218.543-222.466 217.111-222.466 215.677-222.466 214.517-221.305 214.517-219.871 214.517-218.438 215.677-217.277 217.111-217.277 218.543-217.277 219.705-218.438 219.705-219.871Z" id="path3381" fill="#A6D0E4"/><path d="M119.35-214.828C119.35-213.395 118.188-212.234 116.756-212.234 115.322-212.234 114.162-213.395 114.162-214.828 114.162-216.261 115.322-217.422 116.756-217.422 118.188-217.421 119.35-216.26 119.35-214.828Z" id="path3383" fill="#E9DDB7"/><path d="M253.348-128.091C253.348-136.501 248.27-143.318 242.008-143.318 235.746-143.318 230.668-136.502 230.668-128.091 230.668-119.683 235.746-115.65 242.008-115.65 248.27-115.65 253.348-119.683 253.348-128.091Z" id="path3385" fill="#E9DDB7"/><path d="M184.573-222.551C185.313-214.45 197.244-215.534 202.477-208.337 212.997-193.862 201.258-161.972 180.847-161.972 169.107-161.972 156.63-171.691 156.63-191.191 156.63-207.025 166.796-212.691 164.88-233.357 163.874-244.191 152.38-253.7 152.38-268.107 152.38-274.029 155.966-281.554 163.933-281.554 170.988-281.554 174.755-275.601 174.755-268.654 174.755-261.856 169.374-252.914 176.13-249.607 181.372-247.042 189.341-254.377 195.629-256.357 200.82-257.993 208.018-256.132 210.379-247.857 212.91-238.981 207.127-233.112 198.787-231.164 192.469-229.687 183.985-228.993 184.573-222.551ZM168.589-253.11C168.589-254.925 167.118-256.397 165.304-256.397 163.49-256.397 162.017-254.925 162.017-253.11 162.017-251.296 163.49-249.825 165.304-249.825 167.118-249.825 168.589-251.295 168.589-253.11ZM194.572-243.415C195.857-243.415 196.9-244.458 196.9-245.745 196.9-247.031 195.857-248.073 194.572-248.073 193.285-248.073 192.242-247.031 192.242-245.745 192.243-244.457 193.286-243.415 194.572-243.415ZM174.589-183.743C174.589-185.558 173.118-187.03 171.302-187.03 169.488-187.03 168.017-185.558 168.017-183.743 168.017-181.929 169.488-180.458 171.302-180.458 173.118-180.457 174.589-181.928 174.589-183.743Z" id="path3387" fill="#A6D0E4"/><path d="M166.907-196.669C155.147-198.053 147.538-196.323 144.253-193.556 141.233-191.013 139.298-188.151 142.005-181.624 144.944-174.533 143.538-166.892 136.47-165.714 130.245-164.677 125.575-170.556 125.23-177.992 124.99-183.175 123.328-186.293 119.697-185.6 116.064-184.909 115.068-179.7 116.064-173.841 117.449-165.713 121.599-162.081 122.291-153.608 122.785-147.553 119.352-139.946 109.84-138.563 100.539-137.209 93.93-142.885 93.238-149.112 92.506-155.7 96.869-160.007 96.349-166.751 95.832-173.496 92.337-176.923 90.47-184.045 87.702-194.594 91.681-203.068 98.251-206.699 112.997-214.847 121.083-203.057 134.222-205.143 145.118-206.872 157.57-223.3 167.253-224.684 175.48-225.859 181.087-220.015 182.298-210.676 183.508-201.338 177.557-195.415 166.907-196.669ZM124.711-196.151C124.711-198.443 122.852-200.301 120.561-200.301 118.268-200.301 116.411-198.443 116.411-196.151 116.411-193.859 118.268-192.001 120.561-192.001 122.852-192 124.711-193.859 124.711-196.151ZM174.171-211.541C174.171-212.496 173.396-213.271 172.441-213.271 171.486-213.271 170.712-212.497 170.712-211.541 170.712-210.586 171.485-209.812 172.441-209.812 173.395-209.812 174.171-210.586 174.171-211.541Z" id="path3389" fill="#C6DD7F"/><path d="M230.201-174.361C230.201-173.597 229.582-172.977 228.816-172.977 228.052-172.977 227.433-173.597 227.433-174.361 227.433-175.125 228.052-175.745 228.816-175.745 229.582-175.745 230.201-175.124 230.201-174.361Z" id="path3391" fill="#C6DD7F"/><path d="M235.734-212.752C235.734-211.51 234.728-210.503 233.486-210.503 232.244-210.503 231.236-211.51 231.236-212.752 231.236-213.994 232.244-215.001 233.486-215.001 234.729-215.001 235.734-213.995 235.734-212.752Z" id="path3393" fill="#E9DDB7"/><path d="M152.208-189.58C152.208-188.912 151.665-188.369 150.997-188.369 150.329-188.369 149.786-188.912 149.786-189.58 149.786-190.248 150.329-190.791 150.997-190.791 151.665-190.791 152.208-190.248 152.208-189.58Z" id="path3395" fill="#A6D0E4"/><path d="M148.575-121.097C148.575-120.333 147.956-119.712 147.192-119.712 146.428-119.712 145.809-120.333 145.809-121.097 145.809-121.861 146.428-122.48 147.192-122.48 147.956-122.48 148.575-121.861 148.575-121.097Z" id="path3397" fill="#A6D0E4"/><path d="M233.141-143.06C233.141-142.392 232.598-141.849 231.93-141.849 231.262-141.849 230.721-142.392 230.721-143.06 230.721-143.728 231.262-144.269 231.93-144.269 232.598-144.269 233.141-143.728 233.141-143.06Z" id="path3399" fill="#E9DDB7"/><path d="M195.852-125.134C195.852-123.253 194.325-121.726 192.444-121.726 190.561-121.726 189.036-123.253 189.036-125.134 189.036-127.017 190.561-128.542 192.444-128.542 194.324-128.542 195.852-127.017 195.852-125.134Z" id="path3401" fill="#C6DD7F"/><path d="M200.832-85.283C200.832-84.125 199.893-83.187 198.734-83.187 197.575-83.187 196.638-84.125 196.638-85.283 196.638-86.441 197.576-87.381 198.734-87.381 199.892-87.381 200.832-86.441 200.832-85.283Z" id="path3403" fill="#E9DDB7"/><path d="M162.03-91.576C162.03-90.707 161.327-90.004 160.458-90.004 159.589-90.004 158.884-90.707 158.884-91.576 158.884-92.445 159.589-93.15 160.458-93.15 161.327-93.15 162.03-92.445 162.03-91.576Z" id="path3405" fill="#E9DDB7"/><path d="M235.701-205.623C235.701-204.176 234.527-203.002 233.08-203.002 231.633-203.002 230.459-204.176 230.459-205.623 230.459-207.07 231.633-208.244 233.08-208.244 234.527-208.245 235.701-207.071 235.701-205.623Z" id="path3407" fill="#C6DD7F"/><path d="M225.477-170.754C225.477-169.451 224.42-168.395 223.118-168.395 221.816-168.395 220.759-169.452 220.759-170.754 220.759-172.057 221.816-173.113 223.118-173.113 224.42-173.113 225.477-172.057 225.477-170.754Z" id="path3409" fill="#A6D0E4"/><path d="M127.686-164.2C127.686-162.752 126.512-161.578 125.063-161.578 123.616-161.578 122.442-162.752 122.442-164.2 122.442-165.648 123.616-166.822 125.063-166.822 126.512-166.822 127.686-165.648 127.686-164.2Z" id="path3411" fill="#E9DDB7"/><path d="M122.704-171.279C122.704-170.555 122.118-169.968 121.393-169.968 120.67-169.968 120.082-170.555 120.082-171.279 120.082-172.003 120.67-172.59 121.393-172.59 122.118-172.589 122.704-172.002 122.704-171.279Z" id="path3413" fill="#A6D0E4"/><path d="M186.938-119.367C186.938-118.498 186.233-117.795 185.364-117.795 184.495-117.795 183.792-118.498 183.792-119.367 183.792-120.236 184.495-120.941 185.364-120.941 186.233-120.941 186.938-120.236 186.938-119.367Z" id="path3415" fill="#E9DDB7"/></g><g id="g3417"><path d="M85.033-147.037C81.842-142.357 86.072-136.316 83.65-131.82 81.228-127.322 76.906-126.804 73.793-129.224 70.158-132.052 70.383-135.867 65.492-138.044 59.963-140.509 47.508-135.796 45.778-145.308 44.903-150.119 48.153-153.874 53.041-154.992 59.094-156.375 62.393-155.172 68.432-158.105 74.485-161.044 79.674-167.098 90.569-170.21 100.975-173.185 106.641-168.653 107.17-164.331 108.206-155.857 90.042-154.382 85.033-147.037ZM82.785-154.474C82.785-155.714 81.779-156.722 80.537-156.722 79.297-156.722 78.289-155.714 78.289-154.474 78.289-153.232 79.297-152.226 80.537-152.226 81.779-152.226 82.785-153.232 82.785-154.474Z" id="path3419" fill="#A6D0E4"/><path d="M111.999-107.857C111.999-90.691 97.499-82.357 84.999-85.025 74.735-87.215 72.165-102.357 68.331-111.191 64.618-119.748 59.499-133.691 48.166-133.691 36.969-133.691 35.334-119.191 24.5-119.191 13.5-119.191-1.06581e-14-134.857-1.06581e-14-158.857-1.06581e-14-173.524 9.799-190.312 20.834-189.524 32.5-188.691 25.334-169.857 36.166-169.857 45.666-169.857 44.023-186.116 45.334-193.191 47-202.191 52.166-207.357 63.831-206.357 78.274-205.12 86.165-192.857 82.702-183.013 78.673-171.562 58.833-165.691 61.165-152.523 62.511-144.931 74.165-140.525 87.165-136.357 101.695-131.701 111.999-125.025 111.999-107.857ZM67.048-183.7C67.048-181.885 68.519-180.414 70.333-180.414 72.147-180.414 73.62-181.885 73.62-183.7 73.62-185.515 72.147-186.986 70.333-186.986 68.519-186.986 67.048-185.515 67.048-183.7ZM20.355-158.796C20.355-159.751 19.582-160.526 18.626-160.526 17.671-160.526 16.896-159.751 16.896-158.796 16.896-157.841 17.671-157.067 18.626-157.067 19.582-157.068 20.355-157.841 20.355-158.796ZM37.822-148.076C37.822-150.178 36.119-151.881 34.017-151.881 31.917-151.881 30.212-150.178 30.212-148.076 30.212-145.974 31.917-144.271 34.017-144.271 36.119-144.271 37.822-145.974 37.822-148.076ZM57.71-163.639C57.71-164.498 57.013-165.195 56.153-165.195 55.294-165.195 54.596-164.499 54.596-163.639 54.596-162.78 55.293-162.083 56.153-162.083 57.013-162.083 57.71-162.78 57.71-163.639ZM87.353-108.945C87.353-110.697 85.933-112.119 84.179-112.119 82.427-112.119 81.005-110.697 81.005-108.945 81.005-107.191 82.427-105.771 84.179-105.771 85.933-105.771 87.353-107.191 87.353-108.945Z" id="path3421" fill="#E9DDB7"/><path d="M109.218-128.091C109.218-136.501 104.14-143.318 97.878-143.318 91.616-143.318 86.538-136.502 86.538-128.091 86.538-119.683 91.616-115.65 97.878-115.65 104.14-115.65 109.218-119.683 109.218-128.091Z" id="path3423" fill="#E9DDB7"/></g></g></pattern><g id="g3425"><path d="M100 105 10 105C7.239 105 5 102.761 5 100L5 10C5 7.239 7.239 5 10 5L100 5C102.761 5 105 7.239 105 10L105 100C105 102.761 102.761 105 100 105Z" id="path3427" stroke="#000000" stroke-miterlimit="10" fill="#E6E6E6"/></g><g id="g3435"><path d="M235 105 145 105C142.239 105 140 102.761 140 100L140 10C140 7.239 142.239 5 145 5L235 5C237.761 5 240 7.239 240 10L240 100C240 102.761 237.761 105 235 105Z" id="path3437" stroke="#000000" stroke-miterlimit="10" fill="#BEF0F0"/><text id="text3439" transform="translate(168.484 51.322)"></text><text id="text3644" stroke="none" stroke-width="1" stroke-linecap="butt" stroke-linejoin="miter" stroke-opacity="1" fill="#000000" fill-opacity="1" font-family="arial" font-style="normal" font-weight="400" font-size="16" text-anchor="middle" letter-spacing="0" word-spacing="0" x="187.69" y="46.4976"><tspan x="187.69" y="46.4976"><tspan x="187.69" y="46.4976">Analyser</tspan><tspan x="256.909" y="46.4976" dx="0"></tspan></tspan><tspan x="190.394" y="66.4976"><tspan x="190.394" y="66.4976">le HTML</tspan></tspan></text></g><g id="g3445"><path d="M235 240 145 240C142.239 240 140 237.761 140 235L140 145C140 142.239 142.239 140 145 140L235 140C237.761 140 240 142.239 240 145L240 235C240 237.761 237.761 240 235 240Z" id="path3447" stroke="#000000" stroke-miterlimit="10" fill="#E6E6E6"/><text id="text3656" stroke="none" stroke-width="1" stroke-linecap="butt" stroke-linejoin="miter" stroke-opacity="1" fill="#000000" fill-opacity="1" font-family="arial" font-style="normal" font-weight="400" font-size="16" text-anchor="middle" letter-spacing="0" word-spacing="0" x="188.661" y="179.563"><tspan x="188.661" y="179.563"><tspan x="188.661" y="179.563">Charger</tspan><tspan x="252.786" y="179.563" dx="0"></tspan></tspan><tspan x="194.52" y="199.563"><tspan x="194.52" y="199.563">le CSS</tspan></tspan></text></g><g id="g3455"><path d="M370 240 280 240C277.239 240 275 237.761 275 235L275 145C275 142.239 277.239 140 280 140L370 140C372.761 140 375 142.239 375 145L375 235C375 237.761 372.761 240 370 240Z" id="path3457" stroke="#000000" stroke-miterlimit="10" fill="#BEF0F0"/><text id="text3715" stroke="none" stroke-width="1" stroke-linecap="butt" stroke-linejoin="miter" stroke-opacity="1" fill="#000000" fill-opacity="1" font-family="arial" font-style="normal" font-weight="400" font-size="16" text-anchor="middle" letter-spacing="0" word-spacing="0" x="322.645" y="175.148"><tspan x="325.458" y="175.148"><tspan x="322.645" y="175.148">Analyser</tspan><tspan x="397.489" y="175.148" dx="0"></tspan></tspan><tspan x="331.051" y="195.148"><tspan x="331.051" y="195.148">le CSS</tspan></tspan></text></g><g id="g3465"><path d="M490 105 280 105C277.239 105 275 102.761 275 100L275 10C275 7.239 277.239 5 280 5L490 5C492.761 5 495 7.239 495 10L495 100C495 102.761 492.761 105 490 105Z" id="path3467" stroke="#000000" stroke-miterlimit="10" fill="#F0C8B4"/><text id="text3469" x="314.701" y="55.7364"><tspan font-family="open_sanssemibold,arial" font-size="16" x="314.701" y="55.7364">Créer l'arbre DOM</tspan></text></g><g id="g3475"><path d="M625 105 535 105C532.239 105 530 102.761 530 100L530 10C530 7.239 532.239 5 535 5L625 5C627.761 5 630 7.239 630 10L630 100C630 102.761 627.761 105 625 105Z" id="path3477" stroke="#000000" stroke-miterlimit="10" fill="url(#Alysse)"/><text id="text3479" font-family="open_sansbold,arial" font-size="16" transform="translate(550.773 59.5974)">Afficher</text></g><path d="M145 53.33 133.75 46.835C132.977 46.389 132.023 46.389 131.25 46.835 130.477 47.282 130 48.107 130 49L130 53 105 53 105 58 130 58 130 61.99C130 62.883 130.477 63.708 131.25 64.155 131.637 64.378 132.068 64.49 132.5 64.49 132.932 64.49 133.363 64.378 133.75 64.155L145 57.66C145.773 57.213 146.25 56.388 146.25 55.495 146.25 54.602 145.773 53.777 145 53.33Z" id="path3481"/><path d="M280 53.33 268.75 46.835C267.977 46.389 267.023 46.389 266.25 46.835 265.477 47.282 265 48.107 265 49L265 53 240 53 240 58 265 58 265 61.99C265 62.883 265.477 63.708 266.25 64.155 266.637 64.378 267.068 64.49 267.5 64.49 267.932 64.49 268.363 64.378 268.75 64.155L280 57.66C280.773 57.213 281.25 56.388 281.25 55.495 281.25 54.602 280.773 53.777 280 53.33Z" id="path3483"/><path d="M535 53.33 523.75 46.835C522.977 46.389 522.023 46.389 521.25 46.835 520.477 47.282 520 48.107 520 49L520 53 495 53 495 58 520 58 520 61.99C520 62.883 520.477 63.708 521.25 64.155 521.637 64.378 522.068 64.49 522.5 64.49 522.932 64.49 523.363 64.378 523.75 64.155L535 57.66C535.773 57.213 536.25 56.388 536.25 55.495 536.25 54.602 535.773 53.777 535 53.33Z" id="path3485"/><path d="M198.16 131.25C197.713 130.477 196.888 130 195.995 130L192 130 192 105 187 105 187 130 183.005 130C182.112 130 181.287 130.477 180.84 131.25 180.393 132.023 180.393 132.977 180.84 133.75L187.335 145C187.782 145.773 188.607 146.25 189.5 146.25 190.393 146.25 191.218 145.773 191.665 145L198.16 133.75C198.607 132.977 198.607 132.023 198.16 131.25Z" id="path3487"/><path d="M280 188.33 268.75 181.835C267.977 181.389 267.023 181.389 266.25 181.835 265.477 182.282 265 183.107 265 184L265 188 240 188 240 193 265 193 265 196.99C265 197.883 265.477 198.708 266.25 199.155 266.637 199.378 267.068 199.49 267.5 199.49 267.932 199.49 268.363 199.378 268.75 199.155L280 192.66C280.773 192.213 281.25 191.388 281.25 190.495 281.25 189.602 280.773 188.777 280 188.33Z" id="path3489"/><path d="M453.28 110.25 446.785 99C446.339 98.227 445.514 97.75 444.62 97.75 443.726 97.75 442.901 98.227 442.455 99L435.96 110.25C435.514 111.023 435.514 111.977 435.96 112.75 436.406 113.523 437.231 114 438.125 114L442.274 114C441.002 138.495 433.985 157.332 421.327 170.042 409.952 181.463 393.933 187.5 375 187.5L375 192.5C395.291 192.5 412.535 185.954 424.869 173.57 438.468 159.915 445.974 139.89 447.276 114L451.115 114C452.009 114 452.834 113.523 453.28 112.75 453.726 111.977 453.727 111.023 453.28 110.25Z" id="path3491"/><text id="text3634" stroke="none" stroke-width="1" stroke-linecap="butt" stroke-linejoin="miter" stroke-opacity="1" fill="#000000" fill-opacity="1" font-family="arial" font-style="normal" font-weight="400" font-size="16" text-anchor="middle" letter-spacing="0" word-spacing="0" x="52.7583" y="49.0214"><tspan x="55.5708" y="49.0214"><tspan x="52.7583" y="49.0214">Charger</tspan></tspan><tspan x="52.9145" y="69.0214"><tspan x="52.9145" y="69.0214">le HTML</tspan></tspan></text><text id="text3680" stroke="none" stroke-width="1" stroke-linecap="butt" stroke-linejoin="miter" stroke-opacity="1" fill="#000000" fill-opacity="1" font-family="arial" font-style="normal" font-weight="400" font-size="16" letter-spacing="0" word-spacing="0" x="450.904" y="156.859"><tspan x="450.904" y="156.859"><tspan x="450.904" y="156.859">Attacher un style</tspan><tspan dx="9.53125"></tspan></tspan><tspan x="450.904" y="176.859"><tspan x="450.904">au nœud du DOM</tspan></tspan></text><text id="text3630" stroke="none" stroke-width="1" stroke-linecap="butt" stroke-linejoin="miter" stroke-opacity="1" fill="#000000" fill-opacity="1" font-family="arial" font-style="normal" font-weight="400" font-size="40" letter-spacing="0" word-spacing="0" x="112.884" y="-81.6694"><tspan x="112.884" y="-81.6694"></tspan></text></svg>